<svg width="30" height="30" viewBox="0 0 30 30" fill="none" xmlns="http://www.w3.org/2000/svg">
<g id="instagram">
<path id="Vector" d="M15.033 30H14.967C6.71428 30 0 23.2857 0 15.033V14.967C0 6.71427 6.71428 0 14.967 0H15.033C23.2857 0 30 6.71427 30 14.967V15.033C30 23.2857 23.2857 30 15.033 30ZM14.967 1.01547C7.27381 1.01547 1.01547 7.27379 1.01547 14.967V15.033C1.01547 22.7262 7.27381 28.9845 14.967 28.9845H15.033C22.7262 28.9845 28.9845 22.7262 28.9845 15.033V14.967C28.9845 7.27379 22.7262 1.01547 15.033 1.01547H14.967Z" fill="#383D38"/>
<g id="Group">
<path id="Vector_2" d="M19.4848 6.40457H10.5162C8.03844 6.40457 6.02274 8.42028 6.02274 10.898V19.103C6.02274 21.5807 8.03844 23.5964 10.5162 23.5964H19.4848C21.9626 23.5964 23.9783 21.5807 23.9783 19.103V10.898C23.9783 8.42028 21.9626 6.40457 19.4848 6.40457ZM7.60788 10.898C7.60788 9.2946 8.91276 7.98971 10.5162 7.98971H19.4848C21.0882 7.98971 22.3931 9.2946 22.3931 10.898V19.103C22.3931 20.7064 21.0882 22.0113 19.4848 22.0113H10.5162C8.91276 22.0113 7.60788 20.7064 7.60788 19.103V10.898Z" fill="#383D38"/>
<path id="Vector_3" d="M15.0005 19.1792C17.3046 19.1792 19.1802 17.3046 19.1802 14.9995C19.1802 12.6944 17.3056 10.8198 15.0005 10.8198C12.6954 10.8198 10.8208 12.6944 10.8208 14.9995C10.8208 17.3046 12.6954 19.1792 15.0005 19.1792ZM15.0005 12.406C16.4313 12.406 17.595 13.5697 17.595 15.0005C17.595 16.4313 16.4313 17.595 15.0005 17.595C13.5697 17.595 12.406 16.4313 12.406 15.0005C12.406 13.5697 13.5697 12.406 15.0005 12.406Z" fill="#383D38"/>
<path id="Vector_4" d="M19.5671 11.4951C20.1875 11.4951 20.6932 10.9904 20.6932 10.369C20.6932 9.74751 20.1885 9.24281 19.5671 9.24281C18.9456 9.24281 18.4409 9.74751 18.4409 10.369C18.4409 10.9904 18.9456 11.4951 19.5671 11.4951Z" fill="#383D38"/>
</g>
</g>
</svg>
