<svg width="30" height="30" viewBox="0 0 30 30" fill="none" xmlns="http://www.w3.org/2000/svg">
<g id="tiktok">
<path id="Vector" d="M15.033 30H14.967C6.71428 30 0 23.2857 0 15.033V14.967C0 6.71427 6.71428 0 14.967 0H15.033C23.2857 0 30 6.71427 30 14.967V15.033C30 23.2857 23.2857 30 15.033 30ZM14.967 1.01547C7.2738 1.01547 1.01547 7.27379 1.01547 14.967V15.033C1.01547 22.7262 7.2738 28.9845 14.967 28.9845H15.033C22.7262 28.9845 28.9845 22.7262 28.9845 15.033V14.967C28.9845 7.27379 22.7262 1.01547 15.033 1.01547H14.967Z" fill="#383D38"/>
<path id="Vector_2" d="M22.0063 10.9935V13.7302C21.528 13.6834 20.9065 13.5748 20.219 13.323C19.3213 12.9939 18.6532 12.5441 18.2155 12.1958V17.7271L18.2043 17.7098C18.2114 17.8194 18.2155 17.9312 18.2155 18.0439C18.2155 20.7907 15.9805 23.0268 13.2326 23.0268C10.4847 23.0268 8.24969 20.7907 8.24969 18.0439C8.24969 15.297 10.4847 13.06 13.2326 13.06C13.5017 13.06 13.7657 13.0813 14.0237 13.1229V15.82C13.7759 15.7317 13.5098 15.6839 13.2326 15.6839C11.9318 15.6839 10.8727 16.742 10.8727 18.0439C10.8727 19.3457 11.9318 20.4038 13.2326 20.4038C14.5334 20.4038 15.5925 19.3447 15.5925 18.0439C15.5925 17.9951 15.5915 17.9464 15.5885 17.8976V7.1489H18.3231C18.3333 7.38042 18.3424 7.61399 18.3526 7.84552C18.3709 8.30146 18.5333 8.73914 18.8167 9.0976C19.1487 9.51902 19.6392 10.0085 20.3277 10.3994C20.9725 10.764 21.5777 10.9214 22.0063 10.9955V10.9935Z" fill="#383D38"/>
</g>
</svg>
