<svg width="30" height="30" viewBox="0 0 30 30" fill="none" xmlns="http://www.w3.org/2000/svg">
<g id="wa">
<path id="Vector" d="M15.033 30H14.967C6.71428 30 0 23.2857 0 15.033V14.967C0 6.71427 6.71428 0 14.967 0H15.033C23.2857 0 30 6.71427 30 14.967V15.033C30 23.2857 23.2857 30 15.033 30ZM14.967 1.01547C7.2738 1.01547 1.01547 7.27379 1.01547 14.967V15.033C1.01547 22.7262 7.2738 28.9845 14.967 28.9845H15.033C22.7262 28.9845 28.9845 22.7262 28.9845 15.033V14.967C28.9845 7.27379 22.7262 1.01547 15.033 1.01547H14.967Z" fill="#383D38"/>
<g id="Group">
<path id="Vector_2" d="M17.8255 19.2391C14.116 19.2391 11.0981 16.2201 11.097 12.5106C11.0981 11.5703 11.8637 10.8056 12.802 10.8056C12.8985 10.8056 12.9939 10.8137 13.0853 10.83C13.2864 10.8635 13.4773 10.9315 13.653 11.0341C13.6784 11.0493 13.6956 11.0737 13.6997 11.1021L14.0917 13.5728C14.0967 13.6022 14.0876 13.6306 14.0683 13.652C13.852 13.8916 13.5758 14.0643 13.2681 14.1506L13.1199 14.1922L13.1757 14.3354C13.6814 15.623 14.7111 16.6517 15.9997 17.1594L16.1429 17.2163L16.1845 17.068C16.2709 16.7603 16.4435 16.4841 16.6831 16.2678C16.7004 16.2516 16.7238 16.2434 16.7471 16.2434C16.7522 16.2434 16.7573 16.2434 16.7634 16.2445L19.234 16.6364C19.2634 16.6415 19.2878 16.6578 19.3031 16.6832C19.4046 16.8588 19.4726 17.0507 19.5072 17.2518C19.5234 17.3412 19.5305 17.4356 19.5305 17.5341C19.5305 18.4734 18.7659 19.2381 17.8255 19.2391Z" fill="#383D38"/>
<path id="Vector_3" d="M24.4038 14.1861C24.2037 11.9257 23.168 9.82873 21.4874 8.28217C19.7966 6.72647 17.6032 5.86942 15.3092 5.86942C10.2746 5.86942 6.17816 9.96581 6.17816 15.0005C6.17816 16.6902 6.64425 18.3363 7.52669 19.7702L5.55872 24.1265L11.8597 23.4553C12.9554 23.9041 14.1151 24.1316 15.3082 24.1316C15.622 24.1316 15.9439 24.1154 16.2668 24.0818C16.5512 24.0514 16.8386 24.0067 17.1209 23.9499C21.3371 23.0979 24.415 19.3559 24.4393 15.0492V15.0005C24.4393 14.7263 24.4271 14.4522 24.4028 14.1871L24.4038 14.1861ZM12.1024 21.5432L8.6163 21.9148L9.65716 19.6087L9.44898 19.3295C9.43375 19.3092 9.41852 19.2888 9.40126 19.2655C8.49749 18.0175 8.02021 16.543 8.02021 15.0015C8.02021 10.9823 11.29 7.71248 15.3092 7.71248C19.0746 7.71248 22.2662 10.6502 22.5739 14.4004C22.5902 14.6014 22.5993 14.8035 22.5993 15.0025C22.5993 15.0594 22.5983 15.1153 22.5973 15.1752C22.5201 18.5374 20.1713 21.3929 16.8853 22.12C16.6344 22.1758 16.3775 22.2185 16.1216 22.2459C15.8556 22.2764 15.5824 22.2916 15.3113 22.2916C14.3456 22.2916 13.4073 22.1047 12.5208 21.7351C12.4223 21.6955 12.3258 21.6529 12.2354 21.6092L12.1034 21.5452L12.1024 21.5432Z" fill="#383D38"/>
</g>
</g>
</svg>
